# xmcd CD database file
#
# Track frame offsets:
#	150
#	25501
#	52126
#	70732
#	94700
#	113831
#	151709
#	175373
#	199245
#
# Disc length: 3078 seconds
#
# Revision: 0
# Processed by: cddbd v1.5.2PL0 Copyright (c) Steve Scherf et al.
# Submitted via: CDex 1.51
#
DISCID=6f0c0409
DTITLE=Casiopea - Live
DYEAR=1985
DGENRE=Jazz
TTITLE0=Down Upbeat
TTITLE1=The Continental Way
TTITLE2=Fabby Daddy
TTITLE3=Twilight Solitude
TTITLE4=Marine Blue
TTITLE5=Looking Up
TTITLE6=Eyes Of The Mind
TTITLE7=Asayake
TTITLE8=Galactic Funk
EXTD=YEAR: 1985
EXTT0=
EXTT1=
EXTT2=
EXTT3=
EXTT4=
EXTT5=
EXTT6=
EXTT7=
EXTT8=
PLAYORDER=
